{
  "version": "0.5.1",
  "modules": [
    {
      "plugin": "Fundamental",
      "model": "ADSR",
      "pos": [
        165.0,
        0.0
      ],
      "params": [
        0.35600021481513977,
        0.39650005102157593,
        0.66049998998641968,
        0.46399983763694763
      ]
    },
    {
      "plugin": "Fundamental",
      "model": "VCF",
      "pos": [
        585.0,
        0.0
      ],
      "params": [
        1.0,
        0.5,
        0.34200000762939453,
        0.0,
        0.27599987387657166
      ]
    },
    {
      "plugin": "Core",
      "model": "AudioInterface",
      "pos": [
        1230.0,
        0.0
      ],
      "params": [],
      "data": {
        "driver": 8,
        "device": 0,
        "sampleRate": 44100.0,
        "blockSize": 512
      }
    },
    {
      "plugin": "Core",
      "model": "MIDIToCVInterface",
      "pos": [
        0.0,
        0.0
      ],
      "params": [
        0.0
      ],
      "data": {}
    },
    {
      "plugin": "RJModules",
      "model": "Splitters",
      "pos": [
        885.0,
        0.0
      ],
      "params": []
    },
    {
      "plugin": "Fundamental",
      "model": "Scope",
      "pos": [
        1035.0,
        0.0
      ],
      "params": [
        0.0,
        0.0,
        0.0,
        0.0,
        -14.0,
        0.0,
        0.0,
        0.0
      ],
      "data": {
        "lissajous": 0,
        "external": 0
      }
    },
    {
      "plugin": "Fundamental",
      "model": "VCMixer",
      "pos": [
        435.0,
        0.0
      ],
      "params": [
        1.0,
        1.0,
        0.0,
        0.0
      ]
    },
    {
      "plugin": "Fundamental",
      "model": "VCO",
      "pos": [
        285.0,
        0.0
      ],
      "params": [
        1.0,
        1.0,
        0.0,
        0.0,
        0.5,
        0.0,
        0.0
      ]
    },
    {
      "plugin": "RJModules",
      "model": "Widener",
      "pos": [
        705.0,
        0.0
      ],
      "params": [
        0.2891007661819458,
        0.7704998254776001,
        0.70400017499923706
      ]
    },
    {
      "plugin": "AudibleInstruments",
      "model": "Braids",
      "pos": [
        345.0,
        380.0
      ],
      "params": [
        0.3640001118183136,
        0.0,
        0.0,
        0.0,
        0.5,
        0.0,
        0.5
      ],
      "data": {
        "settings": [
          17,
          0,
          0,
          0,
          0,
          0,
          0,
          0,
          0,
          0,
          0,
          0,
          255,
          0,
          0,
          0,
          0,
          0,
          0,
          0
        ],
        "lowCpu": false
      }
    },
    {
      "plugin": "VCV-PulseMatrix",
      "model": "PulseMatrix8",
      "pos": [
        750.0,
        380.0
      ],
      "params": [
        0.0,
        0.0,
        0.0,
        0.0,
        0.0,
        0.0,
        0.0,
        0.0,
        0.0,
        0.0,
        0.0,
        0.0,
        0.0,
        0.0,
        0.0,
        0.0,
        0.0,
        0.0,
        0.0,
        0.0,
        0.0,
        0.0,
        0.0,
        0.0,
        0.0,
        0.0,
        0.0,
        0.0,
        0.0,
        0.0,
        0.0,
        0.0,
        0.0,
        0.0,
        0.0,
        0.0,
        0.0,
        0.0,
        0.0,
        0.0,
        0.0,
        0.0,
        0.0,
        0.0,
        0.0,
        0.0,
        0.0,
        0.0,
        0.0,
        0.0,
        0.0,
        0.0,
        0.0,
        0.0,
        0.0,
        0.0,
        0.0,
        0.0,
        0.0,
        0.0,
        0.0,
        0.0,
        0.0,
        0.0,
        0.0,
        0.0,
        0.0,
        0.0,
        0.0,
        0.0,
        0.0,
        0.0,
        0.0,
        0.0,
        0.0
      ],
      "data": {
        "grid": [
          [
            1,
            0,
            1,
            0,
            0,
            1,
            0,
            1
          ],
          [
            0,
            0,
            1,
            0,
            1,
            0,
            1,
            0
          ],
          [
            0,
            0,
            0,
            0,
            0,
            0,
            0,
            0
          ],
          [
            0,
            0,
            0,
            0,
            0,
            0,
            0,
            0
          ],
          [
            0,
            0,
            0,
            0,
            0,
            0,
            0,
            0
          ],
          [
            0,
            0,
            0,
            0,
            0,
            0,
            0,
            0
          ],
          [
            0,
            0,
            0,
            0,
            0,
            0,
            0,
            0
          ],
          [
            0,
            0,
            0,
            0,
            0,
            0,
            0,
            0
          ]
        ],
        "modes": [
          0,
          0,
          0,
          0,
          0,
          0,
          0,
          0
        ]
      }
    },
    {
      "plugin": "Fundamental",
      "model": "SEQ3",
      "pos": [
        0.0,
        760.0
      ],
      "params": [
        2.9000024795532227,
        0.0,
        0.0,
        1.0,
        0.0,
        0.0,
        0.0,
        0.0,
        0.0,
        0.0,
        0.0,
        0.0,
        0.0,
        0.0,
        0.0,
        0.0,
        0.0,
        0.0,
        0.0,
        0.0,
        0.0,
        0.0,
        0.0,
        0.0,
        0.0,
        0.0,
        0.0,
        0.0,
        0.0,
        0.0,
        0.0,
        0.0,
        0.0,
        0.0,
        0.0,
        0.0
      ],
      "data": {
        "running": true,
        "gates": [
          1,
          1,
          1,
          1,
          1,
          1,
          1,
          1
        ],
        "gateMode": 0
      }
    },
    {
      "plugin": "ESeries",
      "model": "E340",
      "pos": [
        855.0,
        760.0
      ],
      "params": [
        0.0,
        0.0,
        0.18149998784065247,
        0.18449999392032623,
        0.76350003480911255,
        0.62449967861175537,
        1.0
      ]
    }
  ],
  "wires": [
    {
      "outputModuleId": 1,
      "outputId": 0,
      "inputModuleId": 8,
      "inputId": 3
    },
    {
      "outputModuleId": 0,
      "outputId": 0,
      "inputModuleId": 6,
      "inputId": 2
    },
    {
      "outputModuleId": 6,
      "outputId": 0,
      "inputModuleId": 1,
      "inputId": 3
    },
    {
      "outputModuleId": 9,
      "outputId": 0,
      "inputModuleId": 6,
      "inputId": 1
    },
    {
      "outputModuleId": 8,
      "outputId": 0,
      "inputModuleId": 4,
      "inputId": 0
    },
    {
      "outputModuleId": 8,
      "outputId": 1,
      "inputModuleId": 4,
      "inputId": 2
    },
    {
      "outputModuleId": 4,
      "outputId": 0,
      "inputModuleId": 2,
      "inputId": 0
    },
    {
      "outputModuleId": 4,
      "outputId": 4,
      "inputModuleId": 2,
      "inputId": 1
    },
    {
      "outputModuleId": 4,
      "outputId": 1,
      "inputModuleId": 5,
      "inputId": 0
    },
    {
      "outputModuleId": 4,
      "outputId": 3,
      "inputModuleId": 5,
      "inputId": 1
    },
    {
      "outputModuleId": 3,
      "outputId": 3,
      "inputModuleId": 1,
      "inputId": 2
    },
    {
      "outputModuleId": 10,
      "outputId": 8,
      "inputModuleId": 0,
      "inputId": 4
    },
    {
      "outputModuleId": 3,
      "outputId": 0,
      "inputModuleId": 12,
      "inputId": 0
    },
    {
      "outputModuleId": 11,
      "outputId": 0,
      "inputModuleId": 10,
      "inputId": 22
    },
    {
      "outputModuleId": 12,
      "outputId": 0,
      "inputModuleId": 6,
      "inputId": 3
    }
  ]
}