{
  "version": "0.6.0",
  "modules": [
    {
      "plugin": "Fundamental",
      "version": "0.6.0",
      "model": "Scope",
      "pos": [
        105,
        0
      ],
      "params": [
        {
          "paramId": 0,
          "value": 0.0
        },
        {
          "paramId": 1,
          "value": 0.0
        },
        {
          "paramId": 2,
          "value": 0.0
        },
        {
          "paramId": 3,
          "value": 0.0
        },
        {
          "paramId": 4,
          "value": -14.0
        },
        {
          "paramId": 5,
          "value": 0.0
        },
        {
          "paramId": 6,
          "value": 0.0
        },
        {
          "paramId": 7,
          "value": 0.0
        }
      ],
      "data": {
        "lissajous": 0,
        "external": 0
      }
    },
    {
      "plugin": "Core",
      "version": "0.6.0",
      "model": "AudioInterface",
      "pos": [
        118,
        0
      ],
      "params": [],
      "data": {
        "audio": {
          "driver": 5,
          "deviceName": "Apple Inc.: Built-in Output",
          "offset": 0,
          "maxChannels": 8,
          "sampleRate": 44100,
          "blockSize": 256
        }
      }
    },
    {
      "plugin": "AudibleInstruments",
      "version": "0.6.0",
      "model": "Braids",
      "pos": [
        25,
        1
      ],
      "params": [
        {
          "paramId": 6,
          "value": 0.74499929
        },
        {
          "paramId": 0,
          "value": 0.0
        },
        {
          "paramId": 1,
          "value": -2.0
        },
        {
          "paramId": 2,
          "value": 0.0
        },
        {
          "paramId": 3,
          "value": 0.404999942
        },
        {
          "paramId": 4,
          "value": 0.0
        },
        {
          "paramId": 5,
          "value": 0.716499984
        }
      ],
      "data": {
        "settings": [
          34,
          0,
          0,
          0,
          0,
          0,
          0,
          0,
          0,
          0,
          0,
          0,
          0,
          0,
          0,
          0,
          0,
          0,
          0,
          0
        ],
        "lowCpu": false
      }
    },
    {
      "plugin": "AudibleInstruments",
      "version": "0.6.0",
      "model": "Braids",
      "pos": [
        71,
        0
      ],
      "params": [
        {
          "paramId": 6,
          "value": 0.764499485
        },
        {
          "paramId": 0,
          "value": 0.0
        },
        {
          "paramId": 1,
          "value": 2.0
        },
        {
          "paramId": 2,
          "value": 0.0
        },
        {
          "paramId": 3,
          "value": 0.5
        },
        {
          "paramId": 4,
          "value": 0.0
        },
        {
          "paramId": 5,
          "value": 0.253499985
        }
      ],
      "data": {
        "settings": [
          35,
          0,
          0,
          0,
          0,
          0,
          0,
          0,
          0,
          0,
          0,
          0,
          0,
          0,
          0,
          0,
          0,
          0,
          0,
          0
        ],
        "lowCpu": false
      }
    },
    {
      "plugin": "AudibleInstruments",
      "version": "0.6.0",
      "model": "Braids",
      "pos": [
        51,
        1
      ],
      "params": [
        {
          "paramId": 6,
          "value": 0.777999043
        },
        {
          "paramId": 0,
          "value": 0.0
        },
        {
          "paramId": 1,
          "value": -1.36200011
        },
        {
          "paramId": 2,
          "value": 0.0
        },
        {
          "paramId": 3,
          "value": 0.652999818
        },
        {
          "paramId": 4,
          "value": 0.0
        },
        {
          "paramId": 5,
          "value": 0.79399997
        }
      ],
      "data": {
        "settings": [
          36,
          0,
          0,
          0,
          0,
          0,
          0,
          0,
          0,
          0,
          0,
          0,
          0,
          0,
          0,
          0,
          0,
          0,
          0,
          0
        ],
        "lowCpu": false
      }
    },
    {
      "plugin": "RJModules",
      "version": "0.6.0dev",
      "model": "BitCrush",
      "pos": [
        41,
        1
      ],
      "params": [
        {
          "paramId": 0,
          "value": 1.0
        },
        {
          "paramId": 1,
          "value": 0.676500201
        }
      ]
    },
    {
      "plugin": "VCV-PulseMatrix",
      "version": "0.6.0",
      "model": "PulseMatrix16",
      "pos": [
        22,
        0
      ],
      "params": [
        {
          "paramId": 0,
          "value": 0.0
        },
        {
          "paramId": 3,
          "value": 0.0
        },
        {
          "paramId": 4,
          "value": 0.0
        },
        {
          "paramId": 5,
          "value": 0.0
        },
        {
          "paramId": 6,
          "value": 0.0
        },
        {
          "paramId": 7,
          "value": 0.0
        },
        {
          "paramId": 8,
          "value": 0.0
        },
        {
          "paramId": 9,
          "value": 0.0
        },
        {
          "paramId": 10,
          "value": 0.0
        },
        {
          "paramId": 1,
          "value": 0.0
        },
        {
          "paramId": 11,
          "value": 0.0
        },
        {
          "paramId": 12,
          "value": 0.0
        },
        {
          "paramId": 13,
          "value": 0.0
        },
        {
          "paramId": 14,
          "value": 0.0
        },
        {
          "paramId": 15,
          "value": 0.0
        },
        {
          "paramId": 16,
          "value": 0.0
        },
        {
          "paramId": 17,
          "value": 0.0
        },
        {
          "paramId": 18,
          "value": 0.0
        },
        {
          "paramId": 19,
          "value": 0.0
        },
        {
          "paramId": 20,
          "value": 0.0
        },
        {
          "paramId": 21,
          "value": 0.0
        },
        {
          "paramId": 22,
          "value": 0.0
        },
        {
          "paramId": 23,
          "value": 0.0
        },
        {
          "paramId": 24,
          "value": 0.0
        },
        {
          "paramId": 25,
          "value": 0.0
        },
        {
          "paramId": 26,
          "value": 0.0
        },
        {
          "paramId": 27,
          "value": 0.0
        },
        {
          "paramId": 28,
          "value": 0.0
        },
        {
          "paramId": 29,
          "value": 0.0
        },
        {
          "paramId": 30,
          "value": 0.0
        },
        {
          "paramId": 31,
          "value": 0.0
        },
        {
          "paramId": 32,
          "value": 0.0
        },
        {
          "paramId": 33,
          "value": 0.0
        },
        {
          "paramId": 34,
          "value": 0.0
        },
        {
          "paramId": 35,
          "value": 0.0
        },
        {
          "paramId": 36,
          "value": 0.0
        },
        {
          "paramId": 37,
          "value": 0.0
        },
        {
          "paramId": 38,
          "value": 0.0
        },
        {
          "paramId": 39,
          "value": 0.0
        },
        {
          "paramId": 40,
          "value": 0.0
        },
        {
          "paramId": 41,
          "value": 0.0
        },
        {
          "paramId": 42,
          "value": 0.0
        },
        {
          "paramId": 43,
          "value": 0.0
        },
        {
          "paramId": 44,
          "value": 0.0
        },
        {
          "paramId": 45,
          "value": 0.0
        },
        {
          "paramId": 46,
          "value": 0.0
        },
        {
          "paramId": 47,
          "value": 0.0
        },
        {
          "paramId": 48,
          "value": 0.0
        },
        {
          "paramId": 49,
          "value": 0.0
        },
        {
          "paramId": 50,
          "value": 0.0
        },
        {
          "paramId": 51,
          "value": 0.0
        },
        {
          "paramId": 52,
          "value": 0.0
        },
        {
          "paramId": 53,
          "value": 0.0
        },
        {
          "paramId": 54,
          "value": 0.0
        },
        {
          "paramId": 55,
          "value": 0.0
        },
        {
          "paramId": 56,
          "value": 0.0
        },
        {
          "paramId": 57,
          "value": 0.0
        },
        {
          "paramId": 58,
          "value": 0.0
        },
        {
          "paramId": 59,
          "value": 0.0
        },
        {
          "paramId": 60,
          "value": 0.0
        },
        {
          "paramId": 61,
          "value": 0.0
        },
        {
          "paramId": 62,
          "value": 0.0
        },
        {
          "paramId": 63,
          "value": 0.0
        },
        {
          "paramId": 64,
          "value": 0.0
        },
        {
          "paramId": 65,
          "value": 0.0
        },
        {
          "paramId": 66,
          "value": 0.0
        },
        {
          "paramId": 67,
          "value": 0.0
        },
        {
          "paramId": 68,
          "value": 0.0
        },
        {
          "paramId": 69,
          "value": 0.0
        },
        {
          "paramId": 70,
          "value": 0.0
        },
        {
          "paramId": 71,
          "value": 0.0
        },
        {
          "paramId": 72,
          "value": 0.0
        },
        {
          "paramId": 73,
          "value": 0.0
        },
        {
          "paramId": 74,
          "value": 0.0
        },
        {
          "paramId": 75,
          "value": 0.0
        },
        {
          "paramId": 76,
          "value": 0.0
        },
        {
          "paramId": 77,
          "value": 0.0
        },
        {
          "paramId": 78,
          "value": 0.0
        },
        {
          "paramId": 79,
          "value": 0.0
        },
        {
          "paramId": 80,
          "value": 0.0
        },
        {
          "paramId": 81,
          "value": 0.0
        },
        {
          "paramId": 82,
          "value": 0.0
        },
        {
          "paramId": 83,
          "value": 0.0
        },
        {
          "paramId": 84,
          "value": 0.0
        },
        {
          "paramId": 85,
          "value": 0.0
        },
        {
          "paramId": 86,
          "value": 0.0
        },
        {
          "paramId": 87,
          "value": 0.0
        },
        {
          "paramId": 88,
          "value": 0.0
        },
        {
          "paramId": 89,
          "value": 0.0
        },
        {
          "paramId": 90,
          "value": 0.0
        },
        {
          "paramId": 91,
          "value": 0.0
        },
        {
          "paramId": 92,
          "value": 0.0
        },
        {
          "paramId": 93,
          "value": 0.0
        },
        {
          "paramId": 94,
          "value": 0.0
        },
        {
          "paramId": 95,
          "value": 0.0
        },
        {
          "paramId": 96,
          "value": 0.0
        },
        {
          "paramId": 97,
          "value": 0.0
        },
        {
          "paramId": 98,
          "value": 0.0
        },
        {
          "paramId": 99,
          "value": 0.0
        },
        {
          "paramId": 100,
          "value": 0.0
        },
        {
          "paramId": 101,
          "value": 0.0
        },
        {
          "paramId": 102,
          "value": 0.0
        },
        {
          "paramId": 103,
          "value": 0.0
        },
        {
          "paramId": 104,
          "value": 0.0
        },
        {
          "paramId": 105,
          "value": 0.0
        },
        {
          "paramId": 106,
          "value": 0.0
        },
        {
          "paramId": 107,
          "value": 0.0
        },
        {
          "paramId": 108,
          "value": 0.0
        },
        {
          "paramId": 109,
          "value": 0.0
        },
        {
          "paramId": 110,
          "value": 0.0
        },
        {
          "paramId": 111,
          "value": 0.0
        },
        {
          "paramId": 112,
          "value": 0.0
        },
        {
          "paramId": 113,
          "value": 0.0
        },
        {
          "paramId": 114,
          "value": 0.0
        },
        {
          "paramId": 115,
          "value": 0.0
        },
        {
          "paramId": 116,
          "value": 0.0
        },
        {
          "paramId": 117,
          "value": 0.0
        },
        {
          "paramId": 118,
          "value": 0.0
        },
        {
          "paramId": 119,
          "value": 0.0
        },
        {
          "paramId": 120,
          "value": 0.0
        },
        {
          "paramId": 121,
          "value": 0.0
        },
        {
          "paramId": 122,
          "value": 0.0
        },
        {
          "paramId": 123,
          "value": 0.0
        },
        {
          "paramId": 124,
          "value": 0.0
        },
        {
          "paramId": 125,
          "value": 0.0
        },
        {
          "paramId": 126,
          "value": 0.0
        },
        {
          "paramId": 127,
          "value": 0.0
        },
        {
          "paramId": 128,
          "value": 0.0
        },
        {
          "paramId": 129,
          "value": 0.0
        },
        {
          "paramId": 130,
          "value": 0.0
        },
        {
          "paramId": 131,
          "value": 0.0
        },
        {
          "paramId": 132,
          "value": 0.0
        },
        {
          "paramId": 133,
          "value": 0.0
        },
        {
          "paramId": 134,
          "value": 0.0
        },
        {
          "paramId": 135,
          "value": 0.0
        },
        {
          "paramId": 136,
          "value": 0.0
        },
        {
          "paramId": 137,
          "value": 0.0
        },
        {
          "paramId": 138,
          "value": 0.0
        },
        {
          "paramId": 2,
          "value": 0.0
        }
      ],
      "data": {
        "run": true,
        "grid": [
          [
            1,
            1,
            1,
            0,
            0,
            0,
            1,
            1,
            1,
            0,
            0,
            0,
            1,
            1,
            1,
            0
          ],
          [
            1,
            1,
            0,
            1,
            1,
            1,
            0,
            1,
            1,
            1,
            0,
            1,
            1,
            1,
            0,
            1
          ],
          [
            1,
            1,
            0,
            1,
            1,
            1,
            0,
            0,
            1,
            0,
            0,
            1,
            1,
            1,
            0,
            1
          ],
          [
            1,
            1,
            0,
            0,
            1,
            0,
            0,
            1,
            1,
            1,
            0,
            1,
            1,
            1,
            0,
            1
          ],
          [
            1,
            1,
            1,
            1,
            1,
            1,
            1,
            1,
            1,
            1,
            1,
            1,
            1,
            1,
            1,
            1
          ],
          [
            1,
            1,
            0,
            1,
            1,
            1,
            0,
            1,
            1,
            1,
            1,
            1,
            1,
            1,
            0,
            1
          ],
          [
            1,
            1,
            0,
            1,
            1,
            1,
            0,
            0,
            0,
            0,
            0,
            1,
            1,
            1,
            0,
            1
          ],
          [
            1,
            1,
            0,
            0,
            1,
            0,
            0,
            0,
            0,
            1,
            1,
            1,
            0,
            1,
            1,
            1
          ]
        ],
        "modes": [
          0,
          0,
          0,
          0,
          0,
          0,
          0,
          0
        ]
      }
    },
    {
      "plugin": "Fundamental",
      "version": "0.6.0",
      "model": "VCMixer",
      "pos": [
        87,
        1
      ],
      "params": [
        {
          "paramId": 0,
          "value": 1.60500026
        },
        {
          "paramId": 1,
          "value": 0.853000045
        },
        {
          "paramId": 2,
          "value": 0.930999756
        },
        {
          "paramId": 3,
          "value": 0.91900003
        },
        {
          "paramId": 4,
          "value": 0.917499959
        }
      ]
    },
    {
      "plugin": "Fundamental",
      "version": "0.6.0",
      "model": "SEQ3",
      "pos": [
        0,
        0
      ],
      "params": [
        {
          "paramId": 0,
          "value": 2.2159996
        },
        {
          "paramId": 1,
          "value": 0.0
        },
        {
          "paramId": 2,
          "value": 0.0
        },
        {
          "paramId": 3,
          "value": 8.0
        },
        {
          "paramId": 4,
          "value": 0.0
        },
        {
          "paramId": 12,
          "value": 0.0
        },
        {
          "paramId": 20,
          "value": 0.0
        },
        {
          "paramId": 28,
          "value": 0.0
        },
        {
          "paramId": 5,
          "value": 0.0
        },
        {
          "paramId": 13,
          "value": 0.0
        },
        {
          "paramId": 21,
          "value": 0.0
        },
        {
          "paramId": 29,
          "value": 0.0
        },
        {
          "paramId": 6,
          "value": 0.0
        },
        {
          "paramId": 14,
          "value": 0.0
        },
        {
          "paramId": 22,
          "value": 0.0
        },
        {
          "paramId": 30,
          "value": 0.0
        },
        {
          "paramId": 7,
          "value": 0.0
        },
        {
          "paramId": 15,
          "value": 0.0
        },
        {
          "paramId": 23,
          "value": 0.0
        },
        {
          "paramId": 31,
          "value": 0.0
        },
        {
          "paramId": 8,
          "value": 0.0
        },
        {
          "paramId": 16,
          "value": 0.0
        },
        {
          "paramId": 24,
          "value": 0.0
        },
        {
          "paramId": 32,
          "value": 0.0
        },
        {
          "paramId": 9,
          "value": 0.0
        },
        {
          "paramId": 17,
          "value": 0.0
        },
        {
          "paramId": 25,
          "value": 0.0
        },
        {
          "paramId": 33,
          "value": 0.0
        },
        {
          "paramId": 10,
          "value": 0.0
        },
        {
          "paramId": 18,
          "value": 0.0
        },
        {
          "paramId": 26,
          "value": 0.0
        },
        {
          "paramId": 34,
          "value": 0.0
        },
        {
          "paramId": 11,
          "value": 0.0
        },
        {
          "paramId": 19,
          "value": 0.0
        },
        {
          "paramId": 27,
          "value": 0.0
        },
        {
          "paramId": 35,
          "value": 0.0
        }
      ],
      "data": {
        "running": true,
        "gates": [
          1,
          1,
          1,
          1,
          1,
          1,
          1,
          1
        ]
      }
    },
    {
      "plugin": "Fundamental",
      "version": "0.6.0",
      "model": "ADSR",
      "pos": [
        87,
        0
      ],
      "params": [
        {
          "paramId": 0,
          "value": 0.0
        },
        {
          "paramId": 1,
          "value": 0.603500128
        },
        {
          "paramId": 2,
          "value": 0.379500002
        },
        {
          "paramId": 3,
          "value": 0.156000003
        }
      ]
    },
    {
      "plugin": "tnorris-BostonBrightonModules",
      "version": "0.6.0",
      "model": "Dividah",
      "pos": [
        22,
        1
      ],
      "params": []
    },
    {
      "plugin": "tnorris-BostonBrightonModules",
      "version": "0.6.0",
      "model": "Dividah",
      "pos": [
        68,
        0
      ],
      "params": []
    },
    {
      "plugin": "Fundamental",
      "version": "0.6.0",
      "model": "VCA",
      "pos": [
        74,
        1
      ],
      "params": [
        {
          "paramId": 0,
          "value": 0.638500154
        },
        {
          "paramId": 1,
          "value": 0.694999993
        }
      ]
    },
    {
      "plugin": "Fundamental",
      "version": "0.6.0",
      "model": "SEQ3",
      "pos": [
        6,
        2
      ],
      "params": [
        {
          "paramId": 0,
          "value": 2.0
        },
        {
          "paramId": 1,
          "value": 0.0
        },
        {
          "paramId": 2,
          "value": 0.0
        },
        {
          "paramId": 3,
          "value": 8.0
        },
        {
          "paramId": 4,
          "value": 0.150000006
        },
        {
          "paramId": 12,
          "value": 0.0
        },
        {
          "paramId": 20,
          "value": 0.0
        },
        {
          "paramId": 28,
          "value": 0.0
        },
        {
          "paramId": 5,
          "value": 0.180000007
        },
        {
          "paramId": 13,
          "value": 0.0
        },
        {
          "paramId": 21,
          "value": 0.0
        },
        {
          "paramId": 29,
          "value": 0.0
        },
        {
          "paramId": 6,
          "value": 0.314999968
        },
        {
          "paramId": 14,
          "value": 0.0
        },
        {
          "paramId": 22,
          "value": 0.0
        },
        {
          "paramId": 30,
          "value": 0.0
        },
        {
          "paramId": 7,
          "value": 0.855000019
        },
        {
          "paramId": 15,
          "value": 0.0
        },
        {
          "paramId": 23,
          "value": 0.0
        },
        {
          "paramId": 31,
          "value": 0.0
        },
        {
          "paramId": 8,
          "value": 0.179999992
        },
        {
          "paramId": 16,
          "value": 0.0
        },
        {
          "paramId": 24,
          "value": 0.0
        },
        {
          "paramId": 32,
          "value": 0.0
        },
        {
          "paramId": 9,
          "value": 0.419999987
        },
        {
          "paramId": 17,
          "value": 0.0
        },
        {
          "paramId": 25,
          "value": 0.0
        },
        {
          "paramId": 33,
          "value": 0.0
        },
        {
          "paramId": 10,
          "value": 0.149999991
        },
        {
          "paramId": 18,
          "value": 0.0
        },
        {
          "paramId": 26,
          "value": 0.0
        },
        {
          "paramId": 34,
          "value": 0.0
        },
        {
          "paramId": 11,
          "value": 0.0
        },
        {
          "paramId": 19,
          "value": 0.0
        },
        {
          "paramId": 27,
          "value": 0.0
        },
        {
          "paramId": 35,
          "value": 0.0
        }
      ],
      "data": {
        "running": true,
        "gates": [
          1,
          1,
          1,
          1,
          1,
          1,
          1,
          1
        ]
      }
    },
    {
      "plugin": "Befaco",
      "version": "0.6.0",
      "model": "EvenVCO",
      "pos": [
        28,
        2
      ],
      "params": [
        {
          "paramId": 0,
          "value": -3.0
        },
        {
          "paramId": 1,
          "value": 0.0
        },
        {
          "paramId": 2,
          "value": 0.309000015
        }
      ]
    },
    {
      "plugin": "Fundamental",
      "version": "0.6.0",
      "model": "ADSR",
      "pos": [
        36,
        2
      ],
      "params": [
        {
          "paramId": 0,
          "value": 0.037499994
        },
        {
          "paramId": 1,
          "value": 0.735500157
        },
        {
          "paramId": 2,
          "value": 0.603000045
        },
        {
          "paramId": 3,
          "value": 0.690999925
        }
      ]
    },
    {
      "plugin": "Fundamental",
      "version": "0.6.0",
      "model": "VCMixer",
      "pos": [
        97,
        1
      ],
      "params": [
        {
          "paramId": 0,
          "value": 1.0
        },
        {
          "paramId": 1,
          "value": 0.884500027
        },
        {
          "paramId": 2,
          "value": 1.0
        },
        {
          "paramId": 3,
          "value": 1.0
        },
        {
          "paramId": 4,
          "value": 1.0
        }
      ]
    },
    {
      "plugin": "tnorris-BostonBrightonModules",
      "version": "0.6.0",
      "model": "Dividah",
      "pos": [
        0,
        2
      ],
      "params": []
    },
    {
      "plugin": "tnorris-BostonBrightonModules",
      "version": "0.6.0",
      "model": "Dividah",
      "pos": [
        3,
        2
      ],
      "params": []
    }
  ],
  "wires": [
    {
      "color": {
        "r": 0.0352941193,
        "g": 0.525490224,
        "b": 0.678431392,
        "a": 1.0
      },
      "outputModuleId": 10,
      "outputId": 2,
      "inputModuleId": 2,
      "inputId": 0
    },
    {
      "color": {
        "r": 0.0470588282,
        "g": 0.556862772,
        "b": 0.0823529437,
        "a": 1.0
      },
      "outputModuleId": 6,
      "outputId": 1,
      "inputModuleId": 9,
      "inputId": 4
    },
    {
      "color": {
        "r": 0.788235366,
        "g": 0.0941176564,
        "b": 0.278431386,
        "a": 1.0
      },
      "outputModuleId": 10,
      "outputId": 3,
      "inputModuleId": 4,
      "inputId": 0
    },
    {
      "color": {
        "r": 0.788235366,
        "g": 0.0941176564,
        "b": 0.278431386,
        "a": 1.0
      },
      "outputModuleId": 2,
      "outputId": 0,
      "inputModuleId": 5,
      "inputId": 0
    },
    {
      "color": {
        "r": 0.788235366,
        "g": 0.0941176564,
        "b": 0.278431386,
        "a": 1.0
      },
      "outputModuleId": 8,
      "outputId": 0,
      "inputModuleId": 6,
      "inputId": 2
    },
    {
      "color": {
        "r": 0.0352941193,
        "g": 0.525490224,
        "b": 0.678431392,
        "a": 1.0
      },
      "outputModuleId": 8,
      "outputId": 0,
      "inputModuleId": 10,
      "inputId": 0
    },
    {
      "color": {
        "r": 0.0470588282,
        "g": 0.556862772,
        "b": 0.0823529437,
        "a": 1.0
      },
      "outputModuleId": 6,
      "outputId": 23,
      "inputModuleId": 11,
      "inputId": 0
    },
    {
      "color": {
        "r": 0.0352941193,
        "g": 0.525490224,
        "b": 0.678431392,
        "a": 1.0
      },
      "outputModuleId": 11,
      "outputId": 2,
      "inputModuleId": 6,
      "inputId": 54
    },
    {
      "color": {
        "r": 0.788235366,
        "g": 0.0941176564,
        "b": 0.278431386,
        "a": 1.0
      },
      "outputModuleId": 9,
      "outputId": 0,
      "inputModuleId": 12,
      "inputId": 0
    },
    {
      "color": {
        "r": 0.0470588282,
        "g": 0.556862772,
        "b": 0.0823529437,
        "a": 1.0
      },
      "outputModuleId": 3,
      "outputId": 0,
      "inputModuleId": 12,
      "inputId": 2
    },
    {
      "color": {
        "r": 0.0352941193,
        "g": 0.525490224,
        "b": 0.678431392,
        "a": 1.0
      },
      "outputModuleId": 12,
      "outputId": 0,
      "inputModuleId": 7,
      "inputId": 3
    },
    {
      "color": {
        "r": 0.788235366,
        "g": 0.717647076,
        "b": 0.054901965,
        "a": 1.0
      },
      "outputModuleId": 4,
      "outputId": 0,
      "inputModuleId": 7,
      "inputId": 4
    },
    {
      "color": {
        "r": 0.788235366,
        "g": 0.0941176564,
        "b": 0.278431386,
        "a": 1.0
      },
      "outputModuleId": 5,
      "outputId": 0,
      "inputModuleId": 7,
      "inputId": 2
    },
    {
      "color": {
        "r": 0.0470588282,
        "g": 0.556862772,
        "b": 0.0823529437,
        "a": 1.0
      },
      "outputModuleId": 2,
      "outputId": 0,
      "inputModuleId": 7,
      "inputId": 1
    },
    {
      "color": {
        "r": 0.788235366,
        "g": 0.0941176564,
        "b": 0.278431386,
        "a": 1.0
      },
      "outputModuleId": 8,
      "outputId": 0,
      "inputModuleId": 17,
      "inputId": 0
    },
    {
      "color": {
        "r": 0.0470588282,
        "g": 0.556862772,
        "b": 0.0823529437,
        "a": 1.0
      },
      "outputModuleId": 13,
      "outputId": 1,
      "inputModuleId": 14,
      "inputId": 1
    },
    {
      "color": {
        "r": 0.0352941193,
        "g": 0.525490224,
        "b": 0.678431392,
        "a": 1.0
      },
      "outputModuleId": 14,
      "outputId": 3,
      "inputModuleId": 12,
      "inputId": 5
    },
    {
      "color": {
        "r": 0.788235366,
        "g": 0.0941176564,
        "b": 0.278431386,
        "a": 1.0
      },
      "outputModuleId": 13,
      "outputId": 0,
      "inputModuleId": 15,
      "inputId": 4
    },
    {
      "color": {
        "r": 0.0470588282,
        "g": 0.556862772,
        "b": 0.0823529437,
        "a": 1.0
      },
      "outputModuleId": 15,
      "outputId": 0,
      "inputModuleId": 12,
      "inputId": 4
    },
    {
      "color": {
        "r": 0.0352941193,
        "g": 0.525490224,
        "b": 0.678431392,
        "a": 1.0
      },
      "outputModuleId": 7,
      "outputId": 0,
      "inputModuleId": 16,
      "inputId": 1
    },
    {
      "color": {
        "r": 0.788235366,
        "g": 0.717647076,
        "b": 0.054901965,
        "a": 1.0
      },
      "outputModuleId": 16,
      "outputId": 0,
      "inputModuleId": 0,
      "inputId": 0
    },
    {
      "color": {
        "r": 0.788235366,
        "g": 0.0941176564,
        "b": 0.278431386,
        "a": 1.0
      },
      "outputModuleId": 16,
      "outputId": 0,
      "inputModuleId": 1,
      "inputId": 0
    },
    {
      "color": {
        "r": 0.0470588282,
        "g": 0.556862772,
        "b": 0.0823529437,
        "a": 1.0
      },
      "outputModuleId": 16,
      "outputId": 0,
      "inputModuleId": 1,
      "inputId": 1
    },
    {
      "color": {
        "r": 0.788235366,
        "g": 0.717647076,
        "b": 0.054901965,
        "a": 1.0
      },
      "outputModuleId": 12,
      "outputId": 1,
      "inputModuleId": 16,
      "inputId": 2
    },
    {
      "color": {
        "r": 0.788235366,
        "g": 0.0941176564,
        "b": 0.278431386,
        "a": 1.0
      },
      "outputModuleId": 17,
      "outputId": 1,
      "inputModuleId": 18,
      "inputId": 0
    },
    {
      "color": {
        "r": 0.788235366,
        "g": 0.717647076,
        "b": 0.054901965,
        "a": 1.0
      },
      "outputModuleId": 18,
      "outputId": 2,
      "inputModuleId": 13,
      "inputId": 1
    }
  ]
}