{
  "version": "0.5.1",
  "modules": [
    {
      "plugin": "AudibleInstruments",
      "model": "Braids",
      "pos": [
        990.0,
        380.0
      ],
      "params": [
        0.083999969065189362,
        0.0,
        -2.0,
        0.25200006365776062,
        0.5,
        0.0,
        1.0
      ],
      "data": {
        "settings": [
          4,
          0,
          0,
          0,
          0,
          0,
          0,
          0,
          0,
          0,
          0,
          0,
          255,
          0,
          0,
          0,
          0,
          0,
          0,
          0
        ],
        "lowCpu": false
      }
    },
    {
      "plugin": "VCV-PulseMatrix",
      "model": "PulseMatrix8",
      "pos": [
        180.0,
        380.0
      ],
      "params": [
        0.0,
        0.0,
        0.0,
        0.0,
        0.0,
        0.0,
        0.0,
        0.0,
        0.0,
        0.0,
        0.0,
        0.0,
        0.0,
        0.0,
        0.0,
        0.0,
        0.0,
        0.0,
        0.0,
        0.0,
        0.0,
        0.0,
        0.0,
        0.0,
        0.0,
        0.0,
        0.0,
        0.0,
        0.0,
        0.0,
        0.0,
        0.0,
        0.0,
        0.0,
        0.0,
        0.0,
        0.0,
        0.0,
        0.0,
        0.0,
        0.0,
        0.0,
        0.0,
        0.0,
        0.0,
        0.0,
        0.0,
        0.0,
        0.0,
        0.0,
        0.0,
        0.0,
        0.0,
        0.0,
        0.0,
        0.0,
        0.0,
        0.0,
        0.0,
        0.0,
        0.0,
        0.0,
        0.0,
        0.0,
        0.0,
        0.0,
        0.0,
        0.0,
        0.0,
        0.0,
        0.0,
        0.0,
        0.0,
        0.0,
        0.0
      ],
      "data": {
        "grid": [
          [
            1,
            0,
            0,
            0,
            0,
            1,
            0,
            0
          ],
          [
            0,
            1,
            0,
            0,
            1,
            0,
            0,
            0
          ],
          [
            1,
            0,
            1,
            0,
            0,
            0,
            1,
            0
          ],
          [
            0,
            1,
            0,
            1,
            0,
            0,
            0,
            0
          ],
          [
            0,
            0,
            0,
            0,
            1,
            1,
            0,
            1
          ],
          [
            0,
            0,
            0,
            1,
            0,
            0,
            1,
            0
          ],
          [
            1,
            1,
            0,
            1,
            1,
            1,
            0,
            0
          ],
          [
            0,
            0,
            1,
            0,
            1,
            0,
            0,
            0
          ]
        ],
        "modes": [
          0,
          2,
          0,
          0,
          0,
          0,
          0,
          0
        ]
      }
    },
    {
      "plugin": "Fundamental",
      "model": "SEQ3",
      "pos": [
        345.0,
        0.0
      ],
      "params": [
        2.0,
        0.0,
        0.0,
        8.0,
        1.244999885559082,
        0.0,
        0.0,
        0.0,
        3.059999942779541,
        0.0,
        0.0,
        0.0,
        2.2200002670288086,
        0.0,
        0.0,
        0.0,
        0.71999996900558472,
        0.0,
        0.0,
        0.0,
        1.0500000715255737,
        0.0,
        0.0,
        0.0,
        0.50999999046325684,
        0.0,
        0.0,
        0.0,
        0.69000011682510376,
        0.0,
        0.0,
        0.0,
        1.4100000858306885,
        0.0,
        0.0,
        0.0
      ],
      "data": {
        "running": true,
        "gates": [
          1,
          1,
          1,
          1,
          1,
          1,
          1,
          1
        ],
        "gateMode": 0
      }
    },
    {
      "plugin": "Core",
      "model": "AudioInterface",
      "pos": [
        2175.0,
        0.0
      ],
      "params": [],
      "data": {
        "driver": 8,
        "device": 1,
        "sampleRate": 44100.0,
        "blockSize": 1024
      }
    },
    {
      "plugin": "Befaco",
      "model": "EvenVCO",
      "pos": [
        825.0,
        0.0
      ],
      "params": [
        -4.0,
        0.0,
        -0.039000026881694794
      ]
    },
    {
      "plugin": "RJModules",
      "model": "Splitters",
      "pos": [
        1845.0,
        0.0
      ],
      "params": []
    },
    {
      "plugin": "Fundamental",
      "model": "Scope",
      "pos": [
        2370.0,
        0.0
      ],
      "params": [
        0.0,
        0.0,
        0.0,
        0.0,
        -14.0,
        0.0,
        0.0,
        0.0
      ],
      "data": {
        "lissajous": 0,
        "external": 0
      }
    },
    {
      "plugin": "Fundamental",
      "model": "ADSR",
      "pos": [
        690.0,
        0.0
      ],
      "params": [
        0.0,
        0.68650007247924805,
        0.13900004327297211,
        0.76000046730041504
      ]
    },
    {
      "plugin": "Fundamental",
      "model": "VCA",
      "pos": [
        1350.0,
        0.0
      ],
      "params": [
        1.0,
        1.0
      ]
    },
    {
      "plugin": "RJModules",
      "model": "Button",
      "pos": [
        960.0,
        0.0
      ],
      "params": [
        0.0
      ]
    },
    {
      "plugin": "Fundamental",
      "model": "SequentialSwitch2",
      "pos": [
        1125.0,
        0.0
      ],
      "params": [
        0.0
      ]
    },
    {
      "plugin": "Fundamental",
      "model": "VCF",
      "pos": [
        1455.0,
        0.0
      ],
      "params": [
        0.67150110006332397,
        0.5,
        0.60149979591369629,
        0.0,
        0.3014998733997345
      ]
    },
    {
      "plugin": "Fundamental",
      "model": "SEQ3",
      "pos": [
        0.0,
        0.0
      ],
      "params": [
        2.0,
        0.0,
        0.0,
        8.0,
        1.244999885559082,
        0.0,
        0.0,
        0.0,
        3.059999942779541,
        0.0,
        0.0,
        0.0,
        2.2200002670288086,
        0.0,
        0.0,
        0.0,
        0.71999996900558472,
        0.0,
        0.0,
        0.0,
        1.0500000715255737,
        0.0,
        0.0,
        0.0,
        0.50999999046325684,
        0.0,
        0.0,
        0.0,
        0.69000011682510376,
        0.0,
        0.0,
        0.0,
        1.4100000858306885,
        0.0,
        0.0,
        0.0
      ],
      "data": {
        "running": true,
        "gates": [
          1,
          1,
          1,
          1,
          1,
          1,
          1,
          1
        ],
        "gateMode": 0
      }
    },
    {
      "plugin": "Fundamental",
      "model": "VCMixer",
      "pos": [
        1695.0,
        0.0
      ],
      "params": [
        1.0,
        0.50549995899200439,
        0.99699997901916504,
        0.57549995183944702
      ]
    },
    {
      "plugin": "Fundamental",
      "model": "SEQ3",
      "pos": [
        645.0,
        380.0
      ],
      "params": [
        2.0,
        0.0,
        0.0,
        8.0,
        0.54000008106231689,
        0.0,
        0.0,
        0.0,
        1.8899998664855957,
        0.0,
        0.0,
        0.0,
        1.4099999666213989,
        0.0,
        0.0,
        0.0,
        2.1000001430511475,
        0.0,
        0.0,
        0.0,
        3.3599984645843506,
        0.0,
        0.0,
        0.0,
        2.8949999809265137,
        0.0,
        0.0,
        0.0,
        2.2950000762939453,
        0.0,
        0.0,
        0.0,
        2.0850000381469727,
        0.0,
        0.0,
        0.0
      ],
      "data": {
        "running": true,
        "gates": [
          1,
          1,
          1,
          1,
          1,
          1,
          1,
          1
        ],
        "gateMode": 0
      }
    },
    {
      "plugin": "Fundamental",
      "model": "ADSR",
      "pos": [
        1245.0,
        380.0
      ],
      "params": [
        0.0,
        0.68650007247924805,
        0.13900004327297211,
        0.66250050067901611
      ]
    },
    {
      "plugin": "RJModules",
      "model": "Buttons",
      "pos": [
        0.0,
        380.0
      ],
      "params": [
        0.0,
        0.0,
        0.0,
        0.0,
        0.0,
        0.0,
        0.0,
        0.0,
        0.0
      ]
    },
    {
      "plugin": "VCV-PulseMatrix",
      "model": "PulseMatrix8",
      "pos": [
        300.0,
        760.0
      ],
      "params": [
        0.0,
        0.0,
        0.0,
        0.0,
        0.0,
        0.0,
        0.0,
        0.0,
        0.0,
        0.0,
        0.0,
        0.0,
        0.0,
        0.0,
        0.0,
        0.0,
        0.0,
        0.0,
        0.0,
        0.0,
        0.0,
        0.0,
        0.0,
        0.0,
        0.0,
        0.0,
        0.0,
        0.0,
        0.0,
        0.0,
        0.0,
        0.0,
        0.0,
        0.0,
        0.0,
        0.0,
        0.0,
        0.0,
        0.0,
        0.0,
        0.0,
        0.0,
        0.0,
        0.0,
        0.0,
        0.0,
        0.0,
        0.0,
        0.0,
        0.0,
        0.0,
        0.0,
        0.0,
        0.0,
        0.0,
        0.0,
        0.0,
        0.0,
        0.0,
        0.0,
        0.0,
        0.0,
        0.0,
        0.0,
        0.0,
        0.0,
        0.0,
        0.0,
        0.0,
        0.0,
        0.0,
        0.0,
        0.0,
        0.0,
        0.0
      ],
      "data": {
        "grid": [
          [
            1,
            0,
            1,
            0,
            1,
            0,
            1,
            0
          ],
          [
            0,
            0,
            1,
            0,
            0,
            0,
            0,
            1
          ],
          [
            1,
            1,
            1,
            1,
            1,
            1,
            1,
            1
          ],
          [
            0,
            0,
            0,
            1,
            1,
            1,
            0,
            0
          ],
          [
            0,
            0,
            0,
            0,
            0,
            0,
            0,
            0
          ],
          [
            0,
            0,
            0,
            0,
            0,
            0,
            0,
            0
          ],
          [
            0,
            0,
            0,
            0,
            0,
            0,
            0,
            0
          ],
          [
            0,
            0,
            0,
            0,
            0,
            0,
            0,
            0
          ]
        ],
        "modes": [
          0,
          0,
          0,
          0,
          0,
          0,
          0,
          0
        ]
      }
    },
    {
      "plugin": "RJModules",
      "model": "Splitters",
      "pos": [
        150.0,
        760.0
      ],
      "params": []
    },
    {
      "plugin": "AudibleInstruments",
      "model": "Braids",
      "pos": [
        765.0,
        760.0
      ],
      "params": [
        0.74349838495254517,
        0.0,
        -2.0,
        0.0,
        0.5,
        0.0,
        0.5
      ],
      "data": {
        "settings": [
          34,
          0,
          0,
          0,
          0,
          0,
          0,
          0,
          0,
          0,
          0,
          0,
          255,
          0,
          0,
          0,
          0,
          0,
          0,
          0
        ],
        "lowCpu": false
      }
    },
    {
      "plugin": "AudibleInstruments",
      "model": "Braids",
      "pos": [
        1020.0,
        760.0
      ],
      "params": [
        0.78149944543838501,
        0.0,
        -0.99199867248535156,
        0.0,
        0.5,
        0.0,
        0.5
      ],
      "data": {
        "settings": [
          36,
          0,
          0,
          0,
          0,
          0,
          0,
          0,
          0,
          0,
          0,
          0,
          255,
          0,
          0,
          0,
          0,
          0,
          0,
          0
        ],
        "lowCpu": false
      }
    },
    {
      "plugin": "Fundamental",
      "model": "VCMixer",
      "pos": [
        2175.0,
        760.0
      ],
      "params": [
        1.0,
        1.0,
        1.0,
        1.0
      ]
    },
    {
      "plugin": "Fundamental",
      "model": "Mutes",
      "pos": [
        1575.0,
        0.0
      ],
      "params": [
        0.0,
        0.0,
        0.0,
        0.0,
        0.0,
        0.0,
        0.0,
        0.0,
        0.0,
        0.0
      ],
      "data": {
        "states": [
          true,
          true,
          true,
          true,
          true,
          true,
          true,
          true,
          true,
          true
        ]
      }
    },
    {
      "plugin": "AudibleInstruments",
      "model": "Braids",
      "pos": [
        1275.0,
        760.0
      ],
      "params": [
        0.76199972629547119,
        0.0,
        2.0,
        0.45300000905990601,
        0.5,
        0.0,
        0.5
      ],
      "data": {
        "settings": [
          35,
          0,
          0,
          0,
          0,
          0,
          0,
          0,
          0,
          0,
          0,
          0,
          255,
          0,
          0,
          0,
          0,
          0,
          0,
          0
        ],
        "lowCpu": false
      }
    },
    {
      "plugin": "Fundamental",
      "model": "ADSR",
      "pos": [
        1515.0,
        760.0
      ],
      "params": [
        0.0,
        0.0,
        0.35550007224082947,
        0.38800102472305298
      ]
    },
    {
      "plugin": "Fundamental",
      "model": "Mutes",
      "pos": [
        1905.0,
        760.0
      ],
      "params": [
        0.0,
        0.0,
        0.0,
        0.0,
        0.0,
        0.0,
        0.0,
        0.0,
        0.0,
        0.0
      ],
      "data": {
        "states": [
          true,
          true,
          true,
          true,
          true,
          true,
          true,
          true,
          true,
          true
        ]
      }
    },
    {
      "plugin": "Fundamental",
      "model": "VCMixer",
      "pos": [
        2025.0,
        760.0
      ],
      "params": [
        1.0,
        1.0,
        0.33099988102912903,
        1.0
      ]
    },
    {
      "plugin": "AudibleInstruments",
      "model": "Braids",
      "pos": [
        1650.0,
        760.0
      ],
      "params": [
        0.68949943780899048,
        0.0,
        1.3339989185333252,
        0.0,
        0.66050010919570923,
        0.4050000011920929,
        0.14649993181228638
      ],
      "data": {
        "settings": [
          32,
          0,
          0,
          0,
          0,
          0,
          0,
          0,
          0,
          0,
          0,
          0,
          255,
          0,
          0,
          0,
          0,
          0,
          0,
          0
        ],
        "lowCpu": false
      }
    },
    {
      "plugin": "Fundamental",
      "model": "VCF",
      "pos": [
        2340.0,
        760.0
      ],
      "params": [
        1.0,
        0.5,
        0.71999984979629517,
        0.0,
        0.33300012350082397
      ]
    },
    {
      "plugin": "RJModules",
      "model": "Splitters",
      "pos": [
        0.0,
        760.0
      ],
      "params": []
    },
    {
      "plugin": "RJModules",
      "model": "Widener",
      "pos": [
        1845.0,
        380.0
      ],
      "params": [
        0.31920000910758972,
        1.0,
        0.5
      ]
    },
    {
      "plugin": "RJModules",
      "model": "Splitters",
      "pos": [
        2010.0,
        0.0
      ],
      "params": []
    }
  ],
  "wires": [
    {
      "outputModuleId": 2,
      "outputId": 1,
      "inputModuleId": 4,
      "inputId": 1
    },
    {
      "outputModuleId": 5,
      "outputId": 1,
      "inputModuleId": 5,
      "inputId": 1
    },
    {
      "outputModuleId": 2,
      "outputId": 0,
      "inputModuleId": 7,
      "inputId": 4
    },
    {
      "outputModuleId": 7,
      "outputId": 0,
      "inputModuleId": 8,
      "inputId": 0
    },
    {
      "outputModuleId": 4,
      "outputId": 4,
      "inputModuleId": 10,
      "inputId": 2
    },
    {
      "outputModuleId": 4,
      "outputId": 0,
      "inputModuleId": 10,
      "inputId": 3
    },
    {
      "outputModuleId": 4,
      "outputId": 1,
      "inputModuleId": 10,
      "inputId": 4
    },
    {
      "outputModuleId": 4,
      "outputId": 3,
      "inputModuleId": 10,
      "inputId": 5
    },
    {
      "outputModuleId": 9,
      "outputId": 0,
      "inputModuleId": 10,
      "inputId": 0
    },
    {
      "outputModuleId": 10,
      "outputId": 0,
      "inputModuleId": 8,
      "inputId": 2
    },
    {
      "outputModuleId": 8,
      "outputId": 0,
      "inputModuleId": 11,
      "inputId": 3
    },
    {
      "outputModuleId": 11,
      "outputId": 0,
      "inputModuleId": 22,
      "inputId": 0
    },
    {
      "outputModuleId": 1,
      "outputId": 8,
      "inputModuleId": 2,
      "inputId": 1
    },
    {
      "outputModuleId": 13,
      "outputId": 0,
      "inputModuleId": 5,
      "inputId": 0
    },
    {
      "outputModuleId": 1,
      "outputId": 9,
      "inputModuleId": 14,
      "inputId": 1
    },
    {
      "outputModuleId": 14,
      "outputId": 1,
      "inputModuleId": 0,
      "inputId": 1
    },
    {
      "outputModuleId": 14,
      "outputId": 0,
      "inputModuleId": 15,
      "inputId": 4
    },
    {
      "outputModuleId": 0,
      "outputId": 0,
      "inputModuleId": 8,
      "inputId": 5
    },
    {
      "outputModuleId": 8,
      "outputId": 1,
      "inputModuleId": 22,
      "inputId": 1
    },
    {
      "outputModuleId": 15,
      "outputId": 0,
      "inputModuleId": 8,
      "inputId": 3
    },
    {
      "outputModuleId": 16,
      "outputId": 1,
      "inputModuleId": 1,
      "inputId": 9
    },
    {
      "outputModuleId": 16,
      "outputId": 7,
      "inputModuleId": 1,
      "inputId": 11
    },
    {
      "outputModuleId": 16,
      "outputId": 3,
      "inputModuleId": 1,
      "inputId": 21
    },
    {
      "outputModuleId": 16,
      "outputId": 5,
      "inputModuleId": 1,
      "inputId": 41
    },
    {
      "outputModuleId": 16,
      "outputId": 4,
      "inputModuleId": 18,
      "inputId": 0
    },
    {
      "outputModuleId": 18,
      "outputId": 0,
      "inputModuleId": 1,
      "inputId": 0
    },
    {
      "outputModuleId": 18,
      "outputId": 1,
      "inputModuleId": 17,
      "inputId": 0
    },
    {
      "outputModuleId": 17,
      "outputId": 8,
      "inputModuleId": 19,
      "inputId": 0
    },
    {
      "outputModuleId": 19,
      "outputId": 0,
      "inputModuleId": 25,
      "inputId": 0
    },
    {
      "outputModuleId": 28,
      "outputId": 0,
      "inputModuleId": 22,
      "inputId": 2
    },
    {
      "outputModuleId": 20,
      "outputId": 0,
      "inputModuleId": 25,
      "inputId": 1
    },
    {
      "outputModuleId": 17,
      "outputId": 9,
      "inputModuleId": 20,
      "inputId": 0
    },
    {
      "outputModuleId": 23,
      "outputId": 0,
      "inputModuleId": 25,
      "inputId": 2
    },
    {
      "outputModuleId": 24,
      "outputId": 0,
      "inputModuleId": 26,
      "inputId": 2
    },
    {
      "outputModuleId": 17,
      "outputId": 10,
      "inputModuleId": 24,
      "inputId": 4
    },
    {
      "outputModuleId": 22,
      "outputId": 2,
      "inputModuleId": 13,
      "inputId": 5
    },
    {
      "outputModuleId": 22,
      "outputId": 1,
      "inputModuleId": 13,
      "inputId": 3
    },
    {
      "outputModuleId": 22,
      "outputId": 0,
      "inputModuleId": 13,
      "inputId": 1
    },
    {
      "outputModuleId": 25,
      "outputId": 0,
      "inputModuleId": 21,
      "inputId": 1
    },
    {
      "outputModuleId": 25,
      "outputId": 1,
      "inputModuleId": 21,
      "inputId": 3
    },
    {
      "outputModuleId": 25,
      "outputId": 2,
      "inputModuleId": 26,
      "inputId": 1
    },
    {
      "outputModuleId": 5,
      "outputId": 2,
      "inputModuleId": 5,
      "inputId": 2
    },
    {
      "outputModuleId": 5,
      "outputId": 4,
      "inputModuleId": 5,
      "inputId": 3
    },
    {
      "outputModuleId": 22,
      "outputId": 9,
      "inputModuleId": 5,
      "inputId": 4
    },
    {
      "outputModuleId": 17,
      "outputId": 11,
      "inputModuleId": 27,
      "inputId": 0
    },
    {
      "outputModuleId": 27,
      "outputId": 0,
      "inputModuleId": 25,
      "inputId": 3
    },
    {
      "outputModuleId": 25,
      "outputId": 3,
      "inputModuleId": 26,
      "inputId": 3
    },
    {
      "outputModuleId": 26,
      "outputId": 0,
      "inputModuleId": 21,
      "inputId": 5
    },
    {
      "outputModuleId": 21,
      "outputId": 0,
      "inputModuleId": 28,
      "inputId": 3
    },
    {
      "outputModuleId": 12,
      "outputId": 0,
      "inputModuleId": 29,
      "inputId": 0
    },
    {
      "outputModuleId": 29,
      "outputId": 0,
      "inputModuleId": 17,
      "inputId": 22
    },
    {
      "outputModuleId": 1,
      "outputId": 10,
      "inputModuleId": 29,
      "inputId": 1
    },
    {
      "outputModuleId": 29,
      "outputId": 1,
      "inputModuleId": 1,
      "inputId": 22
    },
    {
      "outputModuleId": 5,
      "outputId": 8,
      "inputModuleId": 30,
      "inputId": 3
    },
    {
      "outputModuleId": 31,
      "outputId": 0,
      "inputModuleId": 3,
      "inputId": 1
    },
    {
      "outputModuleId": 31,
      "outputId": 2,
      "inputModuleId": 3,
      "inputId": 0
    },
    {
      "outputModuleId": 30,
      "outputId": 0,
      "inputModuleId": 31,
      "inputId": 0
    },
    {
      "outputModuleId": 30,
      "outputId": 1,
      "inputModuleId": 31,
      "inputId": 1
    },
    {
      "outputModuleId": 31,
      "outputId": 1,
      "inputModuleId": 6,
      "inputId": 0
    },
    {
      "outputModuleId": 31,
      "outputId": 3,
      "inputModuleId": 6,
      "inputId": 1
    },
    {
      "outputModuleId": 5,
      "outputId": 6,
      "inputModuleId": 22,
      "inputId": 9
    }
  ]
}