{
  "version": "0.5.1",
  "modules": [
    {
      "plugin": "AudibleInstruments",
      "model": "Braids",
      "pos": [
        645.0,
        0.0
      ],
      "params": [
        0.73000043630599976,
        0.0,
        -2.0,
        0.0,
        0.25999987125396729,
        0.0,
        0.5
      ],
      "data": {
        "settings": [
          34,
          0,
          0,
          0,
          0,
          0,
          0,
          0,
          0,
          0,
          0,
          0,
          255,
          0,
          0,
          0,
          0,
          0,
          0,
          0
        ],
        "lowCpu": false
      }
    },
    {
      "plugin": "RJModules",
      "model": "BPM",
      "pos": [
        0.0,
        0.0
      ],
      "params": [
        0.0,
        0.7304999828338623
      ]
    },
    {
      "plugin": "Core",
      "model": "AudioInterface",
      "pos": [
        2355.0,
        0.0
      ],
      "params": [],
      "data": {
        "driver": 8,
        "device": 0,
        "sampleRate": 44100.0,
        "blockSize": 1024
      }
    },
    {
      "plugin": "RJModules",
      "model": "Splitters",
      "pos": [
        2010.0,
        0.0
      ],
      "params": []
    },
    {
      "plugin": "Fundamental",
      "model": "Scope",
      "pos": [
        2160.0,
        0.0
      ],
      "params": [
        0.0,
        0.0,
        0.0,
        0.0,
        -14.0,
        0.0,
        0.0,
        0.0
      ],
      "data": {
        "lissajous": 0,
        "external": 0
      }
    },
    {
      "plugin": "Befaco",
      "model": "Mixer",
      "pos": [
        1410.0,
        0.0
      ],
      "params": [
        1.0,
        1.0,
        1.0,
        0.0
      ]
    },
    {
      "plugin": "AudibleInstruments",
      "model": "Braids",
      "pos": [
        1155.0,
        0.0
      ],
      "params": [
        0.78700059652328491,
        0.0,
        -1.4179999828338623,
        0.0,
        0.25999987125396729,
        0.0,
        0.5
      ],
      "data": {
        "settings": [
          36,
          0,
          0,
          0,
          0,
          0,
          0,
          0,
          0,
          0,
          0,
          0,
          255,
          0,
          0,
          0,
          0,
          0,
          0,
          0
        ],
        "lowCpu": false
      }
    },
    {
      "plugin": "Befaco",
      "model": "Mixer",
      "pos": [
        1635.0,
        0.0
      ],
      "params": [
        0.74049997329711914,
        0.40949970483779907,
        0.68499976396560669,
        0.0
      ]
    },
    {
      "plugin": "AudibleInstruments",
      "model": "Braids",
      "pos": [
        900.0,
        0.0
      ],
      "params": [
        0.69249999523162842,
        0.0,
        0.89000016450881958,
        0.0,
        0.25999987125396729,
        0.0,
        0.5
      ],
      "data": {
        "settings": [
          32,
          0,
          0,
          0,
          0,
          0,
          0,
          0,
          0,
          0,
          0,
          0,
          255,
          0,
          0,
          0,
          0,
          0,
          0,
          0
        ],
        "lowCpu": false
      }
    },
    {
      "plugin": "Befaco",
      "model": "EvenVCO",
      "pos": [
        615.0,
        380.0
      ],
      "params": [
        -5.0,
        0.0,
        0.0
      ]
    },
    {
      "plugin": "VCV-PulseMatrix",
      "model": "PulseMatrix8",
      "pos": [
        180.0,
        0.0
      ],
      "params": [
        0.0,
        0.0,
        0.0,
        0.0,
        0.0,
        0.0,
        0.0,
        0.0,
        0.0,
        0.0,
        0.0,
        0.0,
        0.0,
        0.0,
        0.0,
        0.0,
        0.0,
        0.0,
        0.0,
        0.0,
        0.0,
        0.0,
        0.0,
        0.0,
        0.0,
        0.0,
        0.0,
        0.0,
        0.0,
        0.0,
        0.0,
        0.0,
        0.0,
        0.0,
        0.0,
        0.0,
        0.0,
        0.0,
        0.0,
        0.0,
        0.0,
        0.0,
        0.0,
        0.0,
        0.0,
        0.0,
        0.0,
        0.0,
        0.0,
        0.0,
        0.0,
        0.0,
        0.0,
        0.0,
        0.0,
        0.0,
        0.0,
        0.0,
        0.0,
        0.0,
        0.0,
        0.0,
        0.0,
        0.0,
        0.0,
        0.0,
        0.0,
        0.0,
        0.0,
        0.0,
        0.0,
        0.0,
        0.0,
        0.0,
        0.0
      ],
      "data": {
        "grid": [
          [
            1,
            0,
            0,
            0,
            1,
            0,
            0,
            0
          ],
          [
            0,
            0,
            0,
            0,
            1,
            0,
            0,
            1
          ],
          [
            0,
            0,
            0,
            1,
            1,
            1,
            0,
            0
          ],
          [
            0,
            0,
            0,
            0,
            0,
            0,
            0,
            0
          ],
          [
            0,
            0,
            0,
            0,
            0,
            0,
            0,
            0
          ],
          [
            0,
            0,
            0,
            0,
            0,
            0,
            0,
            0
          ],
          [
            0,
            0,
            0,
            0,
            0,
            0,
            0,
            0
          ],
          [
            0,
            0,
            0,
            0,
            0,
            0,
            0,
            0
          ]
        ],
        "modes": [
          0,
          2,
          1,
          0,
          0,
          0,
          0,
          0
        ]
      }
    },
    {
      "plugin": "Fundamental",
      "model": "SEQ3",
      "pos": [
        180.0,
        380.0
      ],
      "params": [
        2.0,
        0.0,
        0.0,
        8.0,
        1.9650003910064697,
        0.0,
        0.0,
        0.0,
        1.589999794960022,
        0.0,
        0.0,
        0.0,
        3.3250002861022949,
        0.0,
        4.3949999809265137,
        0.0,
        2.5900003910064697,
        0.0,
        0.0,
        0.0,
        2.4600002765655518,
        0.0,
        0.0,
        0.0,
        3.0300004482269287,
        0.0,
        7.1100001335144043,
        0.0,
        1.3500001430511475,
        0.0,
        0.0,
        0.0,
        1.0950000286102295,
        0.0,
        0.0,
        0.0
      ],
      "data": {
        "running": true,
        "gates": [
          1,
          1,
          1,
          1,
          1,
          1,
          1,
          1
        ],
        "gateMode": 0
      }
    },
    {
      "plugin": "Fundamental",
      "model": "ADSR",
      "pos": [
        750.0,
        380.0
      ],
      "params": [
        0.08700001984834671,
        0.45049995183944702,
        0.58399999141693115,
        0.61000019311904907
      ]
    },
    {
      "plugin": "Fundamental",
      "model": "VCF",
      "pos": [
        1200.0,
        380.0
      ],
      "params": [
        1.0,
        0.5,
        0.62800002098083496,
        0.0,
        0.62999981641769409
      ]
    },
    {
      "plugin": "RJModules",
      "model": "Splitter",
      "pos": [
        0.0,
        380.0
      ],
      "params": []
    },
    {
      "plugin": "RJModules",
      "model": "Splitter",
      "pos": [
        0.0,
        760.0
      ],
      "params": []
    },
    {
      "plugin": "AudibleInstruments",
      "model": "Tides",
      "pos": [
        525.0,
        760.0
      ],
      "params": [
        0.0,
        0.0,
        28.99200439453125,
        -4.3200011253356934,
        -0.10800043493509293,
        -0.46199989318847656,
        0.35099998116493225
      ],
      "data": {
        "mode": 1,
        "range": 1,
        "sheep": false
      }
    },
    {
      "plugin": "Fundamental",
      "model": "ADSR",
      "pos": [
        750.0,
        760.0
      ],
      "params": [
        0.11549999564886093,
        0.0,
        0.89700007438659668,
        0.42550018429756165
      ]
    },
    {
      "plugin": "Fundamental",
      "model": "SEQ3",
      "pos": [
        180.0,
        760.0
      ],
      "params": [
        2.0,
        0.0,
        0.0,
        8.0,
        3.5550005435943604,
        0.0,
        0.0,
        0.0,
        3.4049999713897705,
        0.0,
        0.0,
        0.0,
        2.8150002956390381,
        0.0,
        0.0,
        0.0,
        2.9500021934509277,
        0.0,
        0.0,
        0.0,
        3.9150004386901855,
        0.0,
        0.0,
        0.0,
        3.0300004482269287,
        0.0,
        0.0,
        0.0,
        1.3500001430511475,
        0.0,
        0.0,
        0.0,
        1.0950000286102295,
        0.0,
        0.0,
        0.0
      ],
      "data": {
        "running": true,
        "gates": [
          1,
          0,
          0,
          1,
          0,
          1,
          0,
          0
        ],
        "gateMode": 0
      }
    },
    {
      "plugin": "Fundamental",
      "model": "VCMixer",
      "pos": [
        1860.0,
        0.0
      ],
      "params": [
        1.0,
        1.0,
        0.0,
        0.0
      ]
    },
    {
      "plugin": "Fundamental",
      "model": "VCF",
      "pos": [
        1245.0,
        760.0
      ],
      "params": [
        0.0,
        0.5,
        0.57900005578994751,
        0.0,
        0.52200019359588623
      ]
    },
    {
      "plugin": "RJModules",
      "model": "Button",
      "pos": [
        0.0,
        1140.0
      ],
      "params": [
        0.0
      ]
    },
    {
      "plugin": "Befaco",
      "model": "Mixer",
      "pos": [
        915.0,
        760.0
      ],
      "params": [
        0.67350012063980103,
        0.0,
        0.0,
        0.0
      ]
    },
    {
      "plugin": "Befaco",
      "model": "SpringReverb",
      "pos": [
        1440.0,
        760.0
      ],
      "params": [
        0.5130000114440918,
        0.87749946117401123,
        0.0,
        0.82099992036819458
      ]
    },
    {
      "plugin": "Fundamental",
      "model": "VCMixer",
      "pos": [
        1050.0,
        760.0
      ],
      "params": [
        0.5,
        1.0,
        0.0,
        0.0
      ]
    },
    {
      "plugin": "RJModules",
      "model": "LRMixer",
      "pos": [
        270.0,
        1140.0
      ],
      "params": [
        1.0
      ]
    },
    {
      "plugin": "RJModules",
      "model": "Volumes",
      "pos": [
        1515.0,
        0.0
      ],
      "params": [
        2.0,
        1.5099997520446777,
        1.0,
        1.0,
        1.0,
        1.0,
        1.0,
        1.0,
        1.0,
        1.0
      ],
      "data": {
        "states": [
          true,
          true,
          true,
          true,
          true,
          true,
          true,
          true,
          true,
          true
        ]
      }
    },
    {
      "plugin": "Fundamental",
      "model": "VCMixer",
      "pos": [
        945.0,
        380.0
      ],
      "params": [
        0.62499994039535522,
        1.0,
        0.0,
        0.0
      ]
    }
  ],
  "wires": [
    {
      "outputModuleId": 3,
      "outputId": 0,
      "inputModuleId": 3,
      "inputId": 1
    },
    {
      "outputModuleId": 3,
      "outputId": 2,
      "inputModuleId": 3,
      "inputId": 2
    },
    {
      "outputModuleId": 3,
      "outputId": 4,
      "inputModuleId": 3,
      "inputId": 3
    },
    {
      "outputModuleId": 3,
      "outputId": 6,
      "inputModuleId": 3,
      "inputId": 4
    },
    {
      "outputModuleId": 3,
      "outputId": 1,
      "inputModuleId": 4,
      "inputId": 0
    },
    {
      "outputModuleId": 3,
      "outputId": 3,
      "inputModuleId": 2,
      "inputId": 0
    },
    {
      "outputModuleId": 3,
      "outputId": 5,
      "inputModuleId": 2,
      "inputId": 1
    },
    {
      "outputModuleId": 5,
      "outputId": 0,
      "inputModuleId": 26,
      "inputId": 0
    },
    {
      "outputModuleId": 10,
      "outputId": 9,
      "inputModuleId": 6,
      "inputId": 0
    },
    {
      "outputModuleId": 6,
      "outputId": 0,
      "inputModuleId": 5,
      "inputId": 1
    },
    {
      "outputModuleId": 8,
      "outputId": 0,
      "inputModuleId": 5,
      "inputId": 2
    },
    {
      "outputModuleId": 10,
      "outputId": 10,
      "inputModuleId": 8,
      "inputId": 0
    },
    {
      "outputModuleId": 0,
      "outputId": 0,
      "inputModuleId": 5,
      "inputId": 0
    },
    {
      "outputModuleId": 10,
      "outputId": 8,
      "inputModuleId": 0,
      "inputId": 0
    },
    {
      "outputModuleId": 1,
      "outputId": 0,
      "inputModuleId": 10,
      "inputId": 22
    },
    {
      "outputModuleId": 1,
      "outputId": 3,
      "inputModuleId": 14,
      "inputId": 0
    },
    {
      "outputModuleId": 11,
      "outputId": 1,
      "inputModuleId": 9,
      "inputId": 1
    },
    {
      "outputModuleId": 9,
      "outputId": 4,
      "inputModuleId": 27,
      "inputId": 1
    },
    {
      "outputModuleId": 12,
      "outputId": 0,
      "inputModuleId": 27,
      "inputId": 2
    },
    {
      "outputModuleId": 14,
      "outputId": 0,
      "inputModuleId": 11,
      "inputId": 1
    },
    {
      "outputModuleId": 27,
      "outputId": 0,
      "inputModuleId": 13,
      "inputId": 3
    },
    {
      "outputModuleId": 13,
      "outputId": 0,
      "inputModuleId": 7,
      "inputId": 1
    },
    {
      "outputModuleId": 11,
      "outputId": 0,
      "inputModuleId": 12,
      "inputId": 4
    },
    {
      "outputModuleId": 7,
      "outputId": 0,
      "inputModuleId": 19,
      "inputId": 1
    },
    {
      "outputModuleId": 1,
      "outputId": 2,
      "inputModuleId": 18,
      "inputId": 1
    },
    {
      "outputModuleId": 18,
      "outputId": 1,
      "inputModuleId": 16,
      "inputId": 5
    },
    {
      "outputModuleId": 19,
      "outputId": 0,
      "inputModuleId": 3,
      "inputId": 0
    },
    {
      "outputModuleId": 11,
      "outputId": 2,
      "inputModuleId": 9,
      "inputId": 4
    },
    {
      "outputModuleId": 21,
      "outputId": 2,
      "inputModuleId": 18,
      "inputId": 2
    },
    {
      "outputModuleId": 21,
      "outputId": 1,
      "inputModuleId": 11,
      "inputId": 2
    },
    {
      "outputModuleId": 21,
      "outputId": 0,
      "inputModuleId": 10,
      "inputId": 12
    },
    {
      "outputModuleId": 16,
      "outputId": 0,
      "inputModuleId": 22,
      "inputId": 0
    },
    {
      "outputModuleId": 16,
      "outputId": 1,
      "inputModuleId": 22,
      "inputId": 1
    },
    {
      "outputModuleId": 16,
      "outputId": 2,
      "inputModuleId": 22,
      "inputId": 2
    },
    {
      "outputModuleId": 16,
      "outputId": 3,
      "inputModuleId": 22,
      "inputId": 3
    },
    {
      "outputModuleId": 20,
      "outputId": 1,
      "inputModuleId": 23,
      "inputId": 2
    },
    {
      "outputModuleId": 23,
      "outputId": 0,
      "inputModuleId": 7,
      "inputId": 2
    },
    {
      "outputModuleId": 21,
      "outputId": 3,
      "inputModuleId": 10,
      "inputId": 0
    },
    {
      "outputModuleId": 22,
      "outputId": 0,
      "inputModuleId": 24,
      "inputId": 1
    },
    {
      "outputModuleId": 17,
      "outputId": 0,
      "inputModuleId": 24,
      "inputId": 2
    },
    {
      "outputModuleId": 24,
      "outputId": 0,
      "inputModuleId": 20,
      "inputId": 3
    },
    {
      "outputModuleId": 18,
      "outputId": 4,
      "inputModuleId": 25,
      "inputId": 0
    },
    {
      "outputModuleId": 18,
      "outputId": 7,
      "inputModuleId": 25,
      "inputId": 1
    },
    {
      "outputModuleId": 18,
      "outputId": 10,
      "inputModuleId": 25,
      "inputId": 2
    },
    {
      "outputModuleId": 18,
      "outputId": 11,
      "inputModuleId": 25,
      "inputId": 3
    },
    {
      "outputModuleId": 15,
      "outputId": 2,
      "inputModuleId": 17,
      "inputId": 4
    },
    {
      "outputModuleId": 18,
      "outputId": 8,
      "inputModuleId": 25,
      "inputId": 4
    },
    {
      "outputModuleId": 18,
      "outputId": 5,
      "inputModuleId": 25,
      "inputId": 5
    },
    {
      "outputModuleId": 25,
      "outputId": 0,
      "inputModuleId": 25,
      "inputId": 6
    },
    {
      "outputModuleId": 25,
      "outputId": 1,
      "inputModuleId": 15,
      "inputId": 0
    },
    {
      "outputModuleId": 18,
      "outputId": 6,
      "inputModuleId": 25,
      "inputId": 7
    },
    {
      "outputModuleId": 18,
      "outputId": 9,
      "inputModuleId": 25,
      "inputId": 8
    },
    {
      "outputModuleId": 15,
      "outputId": 1,
      "inputModuleId": 16,
      "inputId": 3
    },
    {
      "outputModuleId": 26,
      "outputId": 0,
      "inputModuleId": 26,
      "inputId": 1
    },
    {
      "outputModuleId": 26,
      "outputId": 1,
      "inputModuleId": 7,
      "inputId": 0
    }
  ]
}